<svg xmlns="http://www.w3.org/2000/svg" version="1.1" xmlns:xlink="http://www.w3.org/1999/xlink" xmlns:svgjs="http://svgjs.dev/svgjs" width="1000" height="207" viewBox="0 0 1000 207"><g transform="matrix(1,0,0,1,-0.6058486557627134,-0.17154656121979883)"><svg viewBox="0 0 396 82" data-background-color="#ffffff" preserveAspectRatio="xMidYMid meet" height="207" width="1000" xmlns="http://www.w3.org/2000/svg" xmlns:xlink="http://www.w3.org/1999/xlink"><g id="tight-bounds" transform="matrix(1,0,0,1,0.2400714979003169,0.06795564260880838)"><svg viewBox="0 0 395.52 81.86408871478238" height="81.86408871478238" width="395.52"><g><svg viewBox="0 0 395.52 81.86408871478238" height="81.86408871478238" width="395.52"><g><svg viewBox="0 0 395.52 81.86408871478238" height="81.86408871478238" width="395.52"><g transform="matrix(1,0,0,1,0,53.64437622028538)"><svg viewBox="0 0 395.52 28.219712494497006" height="28.219712494497006" width="395.52"><g><svg viewBox="0 0 395.52 28.219712494497006" height="28.219712494497006" width="395.52"><g><svg viewBox="0 0 395.52 28.219712494497006" height="28.219712494497006" width="395.52"><g transform="matrix(1,0,0,1,0,0)"><svg width="395.52" viewBox="1.9742499999999996 -33.45330952196297 636.16973 45.38968952196298" height="28.219712494497006" data-palette-color="#8789fe"><path d="M17.453 10.92l-15.479-33.602 7.006-0.442 11.891 27.235 8.349-28.513 6.637-0.42-11.148 35.283zM69.819 7.844l-24.181 1.36-1.938-34.456 24.182-1.359 0.316 5.621-18.041 1.014 0.464 8.267 16.704-0.939 0.317 5.631-16.704 0.939 0.524 9.316 18.041-1.015zM111.616-13.382l0.68 14.194c-3.174 3.816-7.875 5.873-14.101 6.172v0c-2.65 0.127-5.087-0.103-7.311-0.691-2.224-0.581-4.099-1.406-5.625-2.474-1.526-1.068-2.832-2.347-3.918-3.837-1.086-1.49-1.895-3.053-2.427-4.689-0.532-1.636-0.84-3.327-0.924-5.072v0c-0.087-1.825 0.078-3.598 0.496-5.32 0.425-1.722 1.131-3.355 2.118-4.897 0.988-1.536 2.204-2.895 3.649-4.079 1.439-1.177 3.201-2.136 5.289-2.876 2.094-0.741 4.392-1.171 6.896-1.291v0c4.575-0.219 8.739 0.603 12.492 2.465v0l0.872 0.448-2.317 4.927-0.891-0.428c-1.18-0.524-2.646-0.975-4.4-1.351-1.747-0.377-3.496-0.523-5.247-0.439v0c-1.711 0.082-3.357 0.428-4.936 1.037-1.573 0.609-2.962 1.43-4.167 2.462-1.206 1.026-2.149 2.305-2.829 3.84-0.681 1.534-0.978 3.19-0.894 4.968v0c0.112 2.344 0.826 4.426 2.142 6.245 1.322 1.812 3.093 3.189 5.313 4.131 2.228 0.941 4.7 1.347 7.417 1.216v0c2.977-0.143 5.378-0.932 7.205-2.367v0l-0.317-6.623-10.798 0.517-0.258-5.383zM119.228 5.553l12.316-35.016 6.694-0.261 14.984 33.952-6.285 0.245-4.209-8.873-14.069 0.548-3.515 9.174zM130.548-9.55l9.823-0.382-5.394-12.59zM160.56 4.009l-1.081-34.493 6.757-0.212 20.081 25.904-0.831-26.507 6.117-0.192 1.081 34.493-6.826 0.214-20.013-25.956 0.832 26.557zM218.277 2.436l-0.684-34.504 12.387-0.245c0.713-0.014 1.32-0.023 1.82-0.026 0.5-0.003 1.171 0.02 2.012 0.07 0.834 0.05 1.556 0.129 2.165 0.237 0.609 0.108 1.309 0.267 2.1 0.478 0.784 0.211 1.46 0.468 2.026 0.77 0.566 0.309 1.151 0.707 1.754 1.196 0.596 0.488 1.081 1.042 1.453 1.661 0.366 0.613 0.673 1.347 0.924 2.203 0.257 0.855 0.396 1.799 0.416 2.832v0c0.029 1.46-0.138 2.777-0.502 3.951-0.357 1.174-0.831 2.164-1.421 2.968-0.591 0.805-1.354 1.504-2.289 2.096-0.935 0.592-1.879 1.061-2.833 1.407-0.96 0.339-2.078 0.615-3.354 0.826-1.276 0.212-2.443 0.359-3.502 0.44-1.059 0.074-2.268 0.125-3.628 0.152v0c-0.66 0.013-1.657 0-2.991-0.041v0l0.266 13.407zM228.852-26.66l-5.029 0.1 0.195 9.838c1.268 0.055 2.412 0.072 3.432 0.052v0c1.1-0.022 2.049-0.061 2.848-0.116 0.799-0.056 1.657-0.15 2.575-0.282 0.911-0.131 1.674-0.327 2.289-0.585 0.622-0.252 1.196-0.57 1.722-0.954 0.526-0.384 0.916-0.868 1.171-1.454 0.255-0.592 0.375-1.274 0.359-2.047v0c-0.014-0.7-0.139-1.311-0.376-1.833-0.237-0.515-0.589-0.935-1.055-1.26-0.467-0.324-0.972-0.594-1.517-0.81-0.551-0.216-1.211-0.369-1.979-0.461-0.775-0.091-1.51-0.15-2.204-0.176-0.694-0.026-1.504-0.03-2.431-0.012zM250.796 1.853l13.272-34.664 6.7-0.077 14.045 34.351-6.289 0.072-3.964-8.985-14.079 0.162-3.766 9.073zM262.527-12.932l9.829-0.113-5.047-12.733zM307.48-33.453v0c3.227-0.014 6.412 0.449 9.556 1.389v0l1.002 0.296-1.976 5.638-0.921-0.266c-2.937-0.794-5.608-1.186-8.015-1.175v0c-2.38 0.01-4.415 0.409-6.105 1.196-1.69 0.781-2.532 1.778-2.528 2.991v0c0.003 0.793 0.383 1.488 1.139 2.085 0.756 0.597 1.735 1.099 2.937 1.507 1.195 0.408 2.52 0.813 3.975 1.213 1.448 0.394 2.904 0.854 4.366 1.381 1.456 0.534 2.785 1.145 3.988 1.833 1.203 0.688 2.184 1.611 2.942 2.768 0.758 1.157 1.141 2.488 1.147 3.995v0c0.004 0.967-0.158 1.924-0.488 2.872-0.329 0.955-0.885 1.894-1.668 2.817-0.783 0.923-1.749 1.734-2.9 2.433-1.157 0.692-2.628 1.255-4.412 1.689-1.791 0.441-3.794 0.666-6.008 0.675-2.22 0.009-4.221-0.189-6.002-0.594-1.788-0.406-3.678-0.994-5.668-1.766v0l-0.901-0.336 2.035-5.889 0.951 0.366c4.106 1.436 7.486 2.148 10.139 2.137v0c2.493-0.011 4.512-0.399 6.056-1.166 1.543-0.767 2.312-1.773 2.307-3.02v0c-0.003-0.693-0.242-1.316-0.718-1.867-0.469-0.551-1.101-1.015-1.896-1.392-0.795-0.377-1.706-0.723-2.735-1.038-1.035-0.322-2.119-0.634-3.254-0.936-1.135-0.302-2.269-0.63-3.404-0.986-1.135-0.348-2.217-0.771-3.245-1.266-1.029-0.502-1.941-1.065-2.738-1.688-0.796-0.63-1.433-1.417-1.91-2.362-0.471-0.945-0.709-2-0.713-3.167v0c-0.012-2.913 1.407-5.366 4.258-7.358 2.845-1.986 6.647-2.988 11.407-3.009zM324.23-27.523l0.021-5.63 31.19 0.117-0.021 5.63-12.53-0.047-0.109 28.88-6.12-0.023 0.109-28.88zM358.505 1.516l14.049-34.357 6.699 0.074 13.27 34.658-6.29-0.07-3.76-9.071-14.08-0.155-3.969 8.986zM370.565-13.002l9.83 0.108-4.759-12.843zM437.652 2.779l-24.215-0.499 0.712-34.503 24.215 0.5-0.116 5.629-18.066-0.373-0.171 8.278 16.726 0.345-0.116 5.639-16.727-0.345-0.192 9.328 18.066 0.373zM474.731-25.497v0l-5.658-0.176-0.298 9.565c3.514 0.023 5.972-0.064 7.371-0.26v0c3.384-0.508 5.224-1.851 5.519-4.03v0c0.026-0.179 0.041-0.359 0.047-0.538v0c0.016-0.513-0.059-0.996-0.225-1.448-0.166-0.452-0.472-0.919-0.917-1.399-0.445-0.487-1.166-0.884-2.164-1.189-0.991-0.304-2.216-0.479-3.675-0.525zM474.7-12.041v0c-0.127-0.004-2.145 0.023-6.055 0.081v0l-0.313 10.005 5.438 0.17c0.653 0.02 1.21 0.031 1.669 0.032 0.46 0.008 1.094-0.009 1.903-0.05 0.815-0.035 1.514-0.106 2.098-0.215 0.59-0.102 1.235-0.262 1.936-0.48 0.707-0.225 1.28-0.5 1.716-0.827 0.437-0.327 0.814-0.748 1.13-1.265 0.316-0.51 0.485-1.099 0.506-1.765v0c0.052-1.666-0.823-3.007-2.626-4.024-1.809-1.01-4.277-1.564-7.402-1.662zM462.039 3.481l1.078-34.493 13.164 0.411c1.473 0.046 2.815 0.201 4.027 0.466 1.212 0.265 2.236 0.59 3.071 0.977 0.828 0.393 1.561 0.856 2.198 1.389 0.644 0.527 1.147 1.06 1.511 1.598 0.363 0.538 0.656 1.108 0.877 1.708 0.228 0.594 0.375 1.132 0.44 1.615 0.065 0.482 0.09 0.957 0.075 1.423v0c-0.034 1.099-0.369 2.206-1.004 3.32-0.635 1.114-1.418 2.047-2.348 2.798v0c1.789 0.796 3.206 2.001 4.249 3.615 1.043 1.613 1.536 3.36 1.477 5.238v0c-0.017 0.533-0.087 1.078-0.211 1.634-0.117 0.557-0.341 1.193-0.67 1.91-0.336 0.717-0.761 1.394-1.274 2.032-0.514 0.644-1.2 1.276-2.061 1.896-0.86 0.62-1.85 1.143-2.97 1.568-1.114 0.432-2.478 0.766-4.093 1.003-1.622 0.243-3.395 0.334-5.321 0.274v0zM496.605 4.629l15.034-33.939 6.695 0.267 12.264 35.027-6.285-0.251-3.497-9.177-14.069-0.56-4.226 8.868zM509.08-9.536l9.822 0.392-4.387-12.975zM555.027-27.723v0c3.223 0.152 6.38 0.778 9.472 1.877v0l0.985 0.347-2.263 5.529-0.906-0.312c-2.892-0.944-5.54-1.472-7.944-1.586v0c-2.377-0.112-4.43 0.182-6.158 0.881-1.728 0.693-2.62 1.645-2.678 2.858v0c-0.037 0.792 0.306 1.506 1.031 2.141 0.724 0.635 1.676 1.187 2.855 1.656 1.173 0.469 2.475 0.941 3.908 1.415 1.426 0.468 2.856 1.002 4.289 1.604 1.426 0.608 2.723 1.286 3.889 2.035 1.166 0.749 2.098 1.721 2.796 2.914 0.698 1.194 1.011 2.544 0.94 4.049v0c-0.045 0.966-0.257 1.913-0.634 2.843-0.378 0.937-0.981 1.846-1.81 2.728-0.829 0.882-1.836 1.642-3.021 2.281-1.191 0.631-2.689 1.118-4.494 1.46-1.812 0.349-3.823 0.471-6.034 0.367-2.218-0.104-4.206-0.405-5.964-0.902-1.765-0.497-3.622-1.182-5.569-2.054v0l-0.883-0.382 2.334-5.777 0.931 0.415c4.027 1.645 7.366 2.529 10.017 2.654v0c2.491 0.117 4.526-0.167 6.107-0.854 1.581-0.686 2.4-1.652 2.459-2.898v0c0.033-0.693-0.174-1.326-0.622-1.901-0.44-0.575-1.047-1.07-1.822-1.487-0.775-0.417-1.667-0.809-2.677-1.177-1.017-0.375-2.084-0.742-3.202-1.102-1.118-0.36-2.234-0.746-3.349-1.159-1.115-0.406-2.174-0.883-3.176-1.431-1.002-0.554-1.884-1.163-2.648-1.827-0.763-0.67-1.358-1.489-1.786-2.456-0.422-0.968-0.605-2.034-0.55-3.2v0c0.137-2.91 1.681-5.287 4.63-7.13 2.943-1.837 6.792-2.644 11.547-2.419zM571.45-20.942l0.31-5.621 31.143 1.717-0.31 5.621-12.511-0.69-1.59 28.837-6.111-0.337 1.59-28.837zM604.19 9.817l15.793-33.591 6.687 0.417 11.474 35.293-6.278-0.391-3.29-9.253-14.053-0.877-4.424 8.771zM616.979-4.063l9.811 0.612-4.094-13.07z" opacity="1" transform="matrix(1,0,0,1,0,0)" fill="#8789fe" class="undefined-text-0" data-fill-palette-color="primary" id="text-0"></path></svg></g></svg></g></svg></g></svg></g><g transform="matrix(1,0,0,1,173.72868693889674,0)"><svg viewBox="0 0 48.06262612220648 45.65949481609615" height="45.65949481609615" width="48.06262612220648"><g><svg xmlns="http://www.w3.org/2000/svg" xmlns:xlink="http://www.w3.org/1999/xlink" version="1.1" x="0" y="0" viewBox="6 8.899999999999999 88 83.6" enable-background="new 0 0 100 100" xml:space="preserve" height="45.65949481609615" width="48.06262612220648" class="icon-icon-0" data-fill-palette-color="accent" id="icon-0"><path d="M75.8 48.8l6.6-23.2-4.8-1.4-6.4 22.3c-2.7-1-5.7-1.6-8.7-1.6-6 0-11.6 2.2-15.9 5.7-3.4-2-7.4-3.2-11.6-3.2-11.6 0-21.1 8.8-22.4 20H6l1.8 3.6C11.2 78 17 83.8 23.9 87.2l2.9 1.5c5 2.5 10.6 3.8 16.1 3.8h14.2c5.6 0 11.1-1.3 16.1-3.8l2.9-1.5C83 83.8 88.8 78 92.2 71.1l1.8-3.6h-6.7C86.6 59.6 82.2 52.8 75.8 48.8zM57.1 87.5H42.9c-4.8 0-9.6-1.1-13.9-3.3l-2.9-1.5c-4.7-2.4-8.8-5.9-11.8-10.3h71.3c-3 4.3-7 7.9-11.8 10.3L71 84.2C66.7 86.4 61.9 87.5 57.1 87.5zM62.5 60c4.6 0 8.6 3.2 9.7 7.5H52.8C53.9 63.2 57.9 60 62.5 60zM77.3 67.5c-0.5-3.3-2.1-6.2-4.4-8.3l1.5-5.2c4.3 3.2 7.3 8 8 13.6H77.3zM68.5 56.2c-1.8-0.8-3.8-1.2-6-1.2-7.4 0-13.6 5.4-14.8 12.5h-5.1C43.9 57.7 52.3 50 62.5 50c2.6 0 5.1 0.5 7.4 1.4L68.5 56.2zM37.6 67.5h-9.7c1-2.9 3.8-5 7.1-5 1.2 0 2.4 0.3 3.4 0.8C38 64.7 37.8 66.1 37.6 67.5zM35 52.5c2.9 0 5.6 0.7 8 1.9-1 1.3-2 2.7-2.7 4.2-1.6-0.7-3.4-1.2-5.2-1.2-6 0-11.1 4.3-12.2 10h-5.1C18.9 59 26.2 52.5 35 52.5z" fill="#8789fe" data-fill-palette-color="accent"></path><path d="M42.4 38.9l4.5 2.2 1.8-3.7c2.4-4.7 1.4-10.5-2.3-14.2-2.2-2.2-2.8-5.6-1.4-8.4l1.8-3.7-4.5-2.2-1.8 3.7c-2.4 4.7-1.4 10.5 2.3 14.2 2.2 2.2 2.8 5.6 1.4 8.4L42.4 38.9z" fill="#8789fe" data-fill-palette-color="accent"></path><path d="M53.1 38.9l4.5 2.2 1.8-3.7c2.4-4.7 1.4-10.5-2.3-14.2-2.2-2.2-2.8-5.6-1.4-8.4l1.8-3.7-4.5-2.2-1.8 3.7c-2.4 4.7-1.4 10.5 2.3 14.2 2.2 2.2 2.8 5.6 1.4 8.4L53.1 38.9z" fill="#8789fe" data-fill-palette-color="accent"></path></svg></g></svg></g><g></g></svg></g></svg></g><defs></defs></svg><rect width="395.52" height="81.86408871478238" fill="none" stroke="none" visibility="hidden"></rect></g></svg></g></svg>